<mxfile host="app.diagrams.net" modified="2022-02-01T22:39:58.021Z" agent="5.0 (Macintosh; Intel Mac OS X 10_15_7) AppleWebKit/537.36 (KHTML, like Gecko) Chrome/96.0.4664.110 Safari/537.36" etag="Wkc8JawZXdVq31hwHbM6" version="16.3.0" type="github">
  <diagram name="Page-1" id="2cc2dc42-3aac-f2a9-1cec-7a8b7cbee084">
    <mxGraphModel dx="1472" dy="816" grid="1" gridSize="10" guides="1" tooltips="1" connect="1" arrows="1" fold="1" page="1" pageScale="1" pageWidth="1100" pageHeight="850" background="none" math="0" shadow="0">
      <root>
        <mxCell id="0" />
        <mxCell id="1" parent="0" />
        <mxCell id="7026571954dc6520-1" value="" style="strokeWidth=1;shadow=0;dashed=0;align=center;html=1;shape=mxgraph.mockup.containers.browserWindow;rSize=0;strokeColor=#666666;mainText=,;recursiveResize=0;rounded=0;labelBackgroundColor=none;fontFamily=Verdana;fontSize=12;fillColor=#FFFFFF;" parent="1" vertex="1">
          <mxGeometry x="25" y="15" width="1050" height="820" as="geometry" />
        </mxCell>
        <mxCell id="7026571954dc6520-2" value="Page 1" style="strokeWidth=1;shadow=0;dashed=0;align=center;html=1;shape=mxgraph.mockup.containers.anchor;fontSize=17;fontColor=#666666;align=left;" parent="7026571954dc6520-1" vertex="1">
          <mxGeometry x="60" y="12" width="110" height="26" as="geometry" />
        </mxCell>
        <mxCell id="7026571954dc6520-3" value="https://www.default.com" style="strokeWidth=1;shadow=0;dashed=0;align=center;html=1;shape=mxgraph.mockup.containers.anchor;rSize=0;fontSize=17;fontColor=#666666;align=left;" parent="7026571954dc6520-1" vertex="1">
          <mxGeometry x="130" y="60" width="250" height="26" as="geometry" />
        </mxCell>
        <mxCell id="7026571954dc6520-4" value="YUMRs" style="text;html=1;points=[];align=left;verticalAlign=top;spacingTop=-4;fontSize=30;fontFamily=Verdana" parent="7026571954dc6520-1" vertex="1">
          <mxGeometry x="30" y="145" width="340" height="40" as="geometry" />
        </mxCell>
        <mxCell id="7026571954dc6520-15" value="" style="verticalLabelPosition=bottom;shadow=0;dashed=0;align=center;html=1;verticalAlign=top;strokeWidth=1;shape=mxgraph.mockup.markup.line;strokeColor=#999999;rounded=0;labelBackgroundColor=none;fillColor=#ffffff;fontFamily=Verdana;fontSize=12;fontColor=#000000;" parent="7026571954dc6520-1" vertex="1">
          <mxGeometry y="210" width="1050" height="20" as="geometry" />
        </mxCell>
        <mxCell id="WxiXyYHbuEuKd9e4AGqX-3" value="" style="verticalLabelPosition=bottom;shadow=0;dashed=0;align=center;html=1;verticalAlign=top;strokeWidth=1;shape=mxgraph.mockup.graphics.simpleIcon;strokeColor=#999999;" vertex="1" parent="7026571954dc6520-1">
          <mxGeometry x="20" y="240" width="1010" height="560" as="geometry" />
        </mxCell>
        <mxCell id="WxiXyYHbuEuKd9e4AGqX-4" value="" style="shape=ext;double=1;rounded=1;whiteSpace=wrap;html=1;" vertex="1" parent="7026571954dc6520-1">
          <mxGeometry x="40" y="260" width="970" height="520" as="geometry" />
        </mxCell>
        <mxCell id="WxiXyYHbuEuKd9e4AGqX-5" value="" style="verticalLabelPosition=bottom;shadow=0;dashed=0;align=center;html=1;verticalAlign=top;strokeWidth=1;shape=mxgraph.mockup.containers.userFemale;strokeColor=#666666;strokeColor2=#008cff;" vertex="1" parent="7026571954dc6520-1">
          <mxGeometry x="930" y="127.5" width="80" height="75" as="geometry" />
        </mxCell>
        <mxCell id="WxiXyYHbuEuKd9e4AGqX-6" value="Food is ready!" style="strokeWidth=1;shadow=0;dashed=0;align=center;html=1;shape=mxgraph.mockup.buttons.button;strokeColor=#666666;fontColor=#ffffff;mainText=;buttonStyle=round;fontSize=17;fontStyle=1;fillColor=#008cff;whiteSpace=wrap;" vertex="1" parent="7026571954dc6520-1">
          <mxGeometry x="700" y="575" width="280" height="55" as="geometry" />
        </mxCell>
        <mxCell id="WxiXyYHbuEuKd9e4AGqX-8" value="&lt;font style=&quot;font-size: 19px&quot; color=&quot;#878787&quot;&gt;Enter cooking time&lt;/font&gt;" style="rounded=0;whiteSpace=wrap;html=1;" vertex="1" parent="7026571954dc6520-1">
          <mxGeometry x="700" y="420" width="200" height="55" as="geometry" />
        </mxCell>
        <mxCell id="WxiXyYHbuEuKd9e4AGqX-11" value="Submit" style="strokeWidth=1;shadow=0;dashed=0;align=center;html=1;shape=mxgraph.mockup.buttons.button;strokeColor=#666666;fontColor=#ffffff;mainText=;buttonStyle=round;fontSize=17;fontStyle=1;fillColor=#008cff;whiteSpace=wrap;" vertex="1" parent="7026571954dc6520-1">
          <mxGeometry x="900" y="420" width="80" height="55" as="geometry" />
        </mxCell>
        <mxCell id="WxiXyYHbuEuKd9e4AGqX-14" value="" style="rounded=0;whiteSpace=wrap;html=1;fontSize=25;fontColor=#0A0A0A;fillColor=#FFFFFF;" vertex="1" parent="7026571954dc6520-1">
          <mxGeometry x="90" y="305" width="570" height="435" as="geometry" />
        </mxCell>
        <mxCell id="WxiXyYHbuEuKd9e4AGqX-15" value="&lt;font size=&quot;1&quot;&gt;&lt;b style=&quot;font-size: 20px&quot;&gt;Order&lt;/b&gt;&lt;/font&gt;" style="rounded=0;whiteSpace=wrap;html=1;fontSize=25;fontColor=#0A0A0A;fillColor=#FFFFFF;strokeColor=none;" vertex="1" parent="7026571954dc6520-1">
          <mxGeometry x="95" y="315" width="100" height="60" as="geometry" />
        </mxCell>
        <mxCell id="WxiXyYHbuEuKd9e4AGqX-16" value="" style="rounded=1;whiteSpace=wrap;html=1;fontSize=22;fontColor=#0A0A0A;fillColor=#E0E0E0;strokeColor=none;" vertex="1" parent="7026571954dc6520-1">
          <mxGeometry x="110" y="385" width="530" height="125" as="geometry" />
        </mxCell>
        <mxCell id="WxiXyYHbuEuKd9e4AGqX-18" value="" style="rounded=1;whiteSpace=wrap;html=1;fontSize=22;fontColor=#0A0A0A;fillColor=#E0E0E0;strokeColor=none;" vertex="1" parent="7026571954dc6520-1">
          <mxGeometry x="110" y="540" width="530" height="125" as="geometry" />
        </mxCell>
        <mxCell id="WxiXyYHbuEuKd9e4AGqX-19" value="Hamburger&lt;br&gt;Quantity: 2" style="rounded=0;whiteSpace=wrap;html=1;fontSize=17;fontColor=#0A0A0A;fillColor=#E0E0E0;align=left;strokeColor=none;" vertex="1" parent="7026571954dc6520-1">
          <mxGeometry x="160" y="418" width="270" height="60" as="geometry" />
        </mxCell>
        <mxCell id="WxiXyYHbuEuKd9e4AGqX-20" value="French Fries&lt;br&gt;Quantity: 1" style="rounded=0;whiteSpace=wrap;html=1;fontSize=17;fontColor=#0A0A0A;fillColor=#E0E0E0;align=left;strokeColor=none;" vertex="1" parent="7026571954dc6520-1">
          <mxGeometry x="160" y="572.5" width="270" height="60" as="geometry" />
        </mxCell>
        <mxCell id="WxiXyYHbuEuKd9e4AGqX-21" value="&lt;b&gt;$4.50&lt;/b&gt;" style="rounded=0;whiteSpace=wrap;html=1;fontSize=17;fontColor=#0A0A0A;fillColor=#E0E0E0;strokeColor=none;" vertex="1" parent="7026571954dc6520-1">
          <mxGeometry x="480" y="418" width="120" height="60" as="geometry" />
        </mxCell>
        <mxCell id="WxiXyYHbuEuKd9e4AGqX-22" value="&lt;b&gt;$2.00&lt;/b&gt;" style="rounded=0;whiteSpace=wrap;html=1;fontSize=17;fontColor=#0A0A0A;fillColor=#E0E0E0;strokeColor=none;" vertex="1" parent="7026571954dc6520-1">
          <mxGeometry x="480" y="570" width="120" height="60" as="geometry" />
        </mxCell>
        <mxCell id="WxiXyYHbuEuKd9e4AGqX-23" value="&lt;b&gt;Total: $11.00&lt;/b&gt;" style="rounded=0;whiteSpace=wrap;html=1;fontSize=17;fontColor=#0A0A0A;fillColor=none;strokeColor=none;" vertex="1" parent="7026571954dc6520-1">
          <mxGeometry x="460" y="680" width="160" height="45" as="geometry" />
        </mxCell>
        <mxCell id="WxiXyYHbuEuKd9e4AGqX-24" value="&lt;font color=&quot;#6b6b6b&quot;&gt;email/username&lt;/font&gt;" style="strokeWidth=2;shadow=0;dashed=0;align=center;html=1;shape=mxgraph.mockup.buttons.button;strokeColor=#666666;fontColor=#ffffff;mainText=;buttonStyle=round;fontSize=17;fontStyle=1;fillColor=none;whiteSpace=wrap;" vertex="1" parent="7026571954dc6520-1">
          <mxGeometry x="720" y="140" width="170" height="50" as="geometry" />
        </mxCell>
      </root>
    </mxGraphModel>
  </diagram>
</mxfile>
